<?xml version="1.0" standalone="no"?>
<!DOCTYPE svg PUBLIC "-//W3C//DTD SVG 20010904//EN"
 "http://www.w3.org/TR/2001/REC-SVG-20010904/DTD/svg10.dtd">
<svg version="1.0" xmlns="http://www.w3.org/2000/svg"
 width="240.000000pt" height="266.000000pt" viewBox="0 0 240.000000 266.000000"
 preserveAspectRatio="xMidYMid meet">

<g transform="translate(0.000000,266.000000) scale(0.100000,-0.100000)"
fill="#2C7A4D" stroke="none">
<path d="M1101 2462 c-15 -28 -15 -28 19 -42 17 -7 41 -26 55 -41 32 -39 49
-38 41 2 -7 39 -31 63 -57 56 -14 -4 -23 2 -33 21 -13 25 -13 25 -25 4z"/>
<path d="M510 2455 c0 -2 18 -14 41 -25 22 -12 62 -36 87 -54 33 -22 72 -38
126 -49 104 -22 126 -41 36 -31 l-65 6 33 -34 c25 -26 48 -38 89 -48 65 -14
138 -43 147 -59 5 -8 0 -8 -16 -2 -29 11 -118 24 -118 17 0 -2 25 -19 55 -36
83 -48 176 -147 225 -240 l41 -80 60 89 c65 99 155 187 237 233 29 17 51 32
49 34 -4 5 -92 -11 -122 -22 -18 -6 -19 -5 -4 10 17 18 142 65 175 66 11 0 36
16 55 36 l34 36 -65 -6 c-44 -5 -62 -4 -55 3 10 10 117 41 145 41 8 0 53 26
100 56 l85 56 -45 -7 c-25 -4 -82 -19 -127 -35 -185 -62 -336 -191 -430 -365
-35 -64 -43 -68 -18 -8 17 41 18 43 8 42 -20 -3 -26 2 -13 11 11 7 11 10 2 10
-7 0 -10 5 -6 12 4 6 3 8 -4 4 -6 -3 -16 -23 -22 -44 -6 -20 -13 -43 -16 -51
-4 -11 -7 -11 -21 0 -14 12 -16 12 -8 0 5 -10 4 -12 -4 -7 -6 4 -14 0 -17 -9
-5 -12 -15 -1 -38 42 -78 145 -187 251 -332 325 -86 44 -106 60 -38 32 21 -10
54 -16 72 -15 22 1 31 -3 30 -11 -2 -8 5 -12 16 -10 10 2 15 -1 11 -7 -4 -7 1
-8 12 -4 15 5 16 4 7 -8 -9 -11 -5 -19 23 -37 28 -18 34 -19 29 -6 -3 9 -9 26
-12 39 -4 16 -11 22 -22 18 -10 -4 -13 -2 -8 5 4 8 2 10 -7 6 -8 -3 -23 4 -34
15 -23 25 -90 48 -179 61 -72 10 -184 13 -184 5z"/>
<path d="M1057 2383 c-2 -11 12 -35 36 -60 l40 -42 19 24 c24 31 23 39 -13 69
-35 30 -76 34 -82 9z m57 -9 c9 -8 16 -18 16 -20 0 -7 -38 15 -45 26 -10 16
12 12 29 -6z"/>
<path d="M1316 2355 c-27 -35 -30 -37 -42 -20 -7 10 -10 23 -7 29 4 6 -1 5
-10 -3 -22 -17 -21 -27 2 -56 l18 -24 37 38 c22 23 36 46 34 57 -2 14 -9 10
-32 -21z"/>
<path d="M1177 2292 c-22 -24 -21 -39 5 -89 l22 -42 23 41 c28 48 29 70 5 91
-24 22 -35 21 -55 -1z m49 -17 c1 -8 -2 -13 -7 -9 -5 3 -9 12 -9 21 0 19 13 9
16 -12z"/>
<path d="M480 2179 c-85 -11 -151 -33 -230 -76 -68 -38 -141 -93 -105 -79 11
4 60 10 110 13 50 3 101 11 115 18 14 7 43 18 65 23 35 10 38 9 20 -3 -63 -44
-62 -42 -27 -50 23 -5 49 0 96 19 35 14 79 26 97 26 30 0 27 -2 -32 -32 l-64
-32 45 -13 c34 -10 56 -11 87 -3 54 13 180 13 188 0 4 -6 -7 -10 -27 -10 -18
0 -51 -5 -73 -12 l-40 -11 44 -9 c72 -13 181 -71 234 -124 40 -40 87 -109 87
-127 0 -2 -32 13 -71 32 -63 31 -80 35 -143 34 -57 -1 -84 -7 -136 -31 l-65
-30 70 -1 c162 -2 285 -67 335 -176 21 -44 21 -44 45 54 9 35 25 87 36 116
l20 53 -31 74 c-35 82 -61 120 -138 195 -49 49 -54 51 -82 41 -17 -5 -30 -14
-30 -19 0 -4 7 -5 17 -2 10 4 14 2 10 -4 -4 -6 6 -19 21 -29 15 -9 34 -26 43
-36 9 -10 20 -18 25 -18 5 -1 19 -16 31 -35 14 -22 17 -32 7 -28 -8 3 -14 9
-14 13 0 16 -129 109 -198 144 -99 50 -207 76 -321 77 -85 1 -91 2 -56 11 22
5 77 7 122 4 l82 -5 -11 24 c-16 36 -39 39 -158 24z"/>
<path d="M763 2126 c4 -20 35 -48 46 -41 6 3 9 10 6 15 -3 5 -1 11 3 14 12 7
47 -19 47 -36 0 -7 9 -14 20 -15 18 -3 18 -2 2 5 -10 4 -18 11 -18 15 2 19 0
23 -21 36 -27 17 -88 22 -85 7z"/>
<path d="M1767 2104 c-185 -41 -342 -139 -443 -277 -24 -32 -44 -55 -44 -50 0
5 29 45 64 90 36 45 62 84 58 88 -4 4 -2 6 3 5 20 -4 35 0 32 10 -1 6 9 16 23
23 17 9 24 20 23 36 -2 15 1 20 10 15 8 -5 8 -3 -2 9 -12 16 -16 15 -50 -12
-182 -144 -297 -402 -336 -750 -19 -176 -19 -180 9 -101 79 225 196 384 336
455 71 35 119 48 210 54 l85 6 -57 28 c-78 37 -182 38 -263 3 -68 -31 -158
-114 -197 -184 -46 -80 -46 -54 -1 40 92 191 239 316 413 351 l64 14 -46 11
c-26 7 -58 12 -72 12 -14 0 -26 5 -26 10 0 13 154 13 201 0 26 -7 46 -6 75 4
l39 13 -65 33 c-42 22 -59 35 -48 38 20 4 120 -23 160 -44 29 -15 58 -10 58
10 0 7 -12 18 -26 25 -39 17 -23 23 27 11 24 -6 50 -12 57 -12 6 -1 12 -5 12
-10 0 -5 5 -6 10 -3 6 3 10 2 10 -2 0 -5 36 -9 81 -10 84 -1 90 4 27 25 -28
10 -43 10 -58 2 -24 -13 -41 -5 -34 14 7 18 -27 25 -151 31 -70 3 -121 0 -168
-11z m-292 -94 c-3 -4 -17 -10 -32 -13 -24 -4 -25 -3 -11 7 18 14 50 17 43 6z"/>
<path d="M827 2094 c6 -15 23 -19 23 -5 0 5 -7 11 -14 14 -10 4 -13 1 -9 -9z"/>
<path d="M1164 2065 c-4 -8 -10 -12 -15 -9 -5 3 -9 1 -9 -5 0 -5 5 -13 10 -16
6 -4 7 -12 4 -18 -5 -8 -4 -9 3 -2 12 11 26 65 18 65 -3 0 -8 -7 -11 -15z"/>
<path d="M525 1896 c-33 -8 -73 -20 -90 -26 l-30 -13 55 -11 c30 -7 65 -9 77
-4 12 4 64 10 115 12 l93 5 -90 -14 c-138 -21 -236 -59 -340 -133 -40 -28 -45
-30 -26 -9 12 14 20 30 17 36 -5 7 -1 8 10 4 12 -4 15 -3 10 5 -14 22 -60 8
-93 -28 -43 -46 -108 -171 -126 -243 l-15 -58 41 38 c23 21 60 52 83 68 24 17
52 51 68 81 15 28 38 62 52 75 l25 23 -20 -44 c-30 -65 -28 -71 19 -53 28 11
47 28 65 58 13 24 46 62 71 84 49 43 73 48 37 8 -23 -24 -63 -88 -63 -99 0
-14 63 16 141 67 96 65 164 89 247 88 34 0 62 1 62 2 0 2 -19 14 -42 28 -94
55 -246 77 -353 53z m268 -53 c-7 -2 -21 -2 -30 0 -10 3 -4 5 12 5 17 0 24 -2
18 -5z"/>
<path d="M1612 1880 c-54 -16 -152 -64 -152 -74 0 -2 19 0 42 6 85 19 222 -22
302 -89 31 -26 127 -75 134 -69 6 6 -25 61 -54 95 -15 18 -24 34 -22 37 9 8
107 -86 128 -124 14 -24 35 -43 61 -54 40 -17 40 -17 33 5 -3 12 -13 37 -20
56 -8 19 -13 36 -11 37 5 5 72 -86 90 -122 9 -17 33 -43 54 -59 21 -15 55 -44
76 -64 20 -19 37 -31 37 -26 0 29 -84 151 -149 216 -124 125 -289 192 -471
192 l-95 1 79 11 c62 9 93 9 140 -1 51 -11 66 -10 96 2 39 17 31 27 -30 38
-24 4 -29 3 -15 -3 16 -7 11 -10 -27 -16 -26 -4 -60 -4 -75 0 l-28 8 25 7 c18
6 10 8 -30 8 -30 0 -83 -8 -118 -18z m293 -10 c-3 -5 -18 -9 -33 -9 l-27 1 30
8 c17 4 31 8 33 9 2 0 0 -3 -3 -9z"/>
<path d="M285 1770 c-3 -6 1 -7 9 -4 18 7 21 14 7 14 -6 0 -13 -4 -16 -10z"/>
<path d="M685 1631 c-51 -24 -115 -80 -138 -120 l-18 -31 53 20 c29 12 58 26
63 33 18 22 76 67 87 67 5 0 -5 -12 -24 -27 -74 -62 -120 -130 -149 -221 -15
-49 -18 -52 -18 -25 -1 17 4 44 9 59 8 21 7 31 -6 45 -25 27 -30 24 -43 -25
-27 -107 -5 -241 57 -346 l26 -45 12 70 c7 39 16 81 22 95 5 14 5 39 1 60 -11
47 -11 157 0 164 4 3 11 -19 14 -49 3 -30 10 -61 15 -71 8 -14 12 -11 30 17
15 25 20 51 20 95 0 65 25 137 55 163 21 17 21 9 1 -30 -9 -18 -14 -48 -12
-76 l3 -46 33 47 c51 71 99 99 162 94 l52 -3 -37 32 c-70 60 -202 87 -270 54z"/>
<path d="M1592 1639 c-111 -19 -254 -118 -293 -204 -10 -22 -19 -35 -19 -30 0
6 -5 2 -11 -8 -5 -9 -7 -22 -3 -29 4 -6 3 -8 -3 -5 -5 3 -10 -8 -10 -26 -1
-90 -46 -384 -69 -457 -30 -96 -41 -103 -15 -10 29 104 45 263 30 305 -10 27
-10 37 0 49 7 9 16 14 20 12 9 -6 8 40 0 48 -14 14 -86 -190 -118 -334 -18
-82 -61 -343 -57 -347 6 -6 109 116 154 182 83 123 112 227 112 406 0 238 59
359 175 359 51 0 94 -26 143 -89 30 -38 42 -46 46 -35 7 18 0 53 -20 108 -14
37 -14 39 2 25 30 -25 57 -101 58 -164 2 -71 32 -140 48 -111 5 9 12 41 15 71
3 30 10 52 14 49 11 -6 10 -138 0 -174 -4 -14 -2 -42 6 -65 7 -22 16 -66 21
-98 l7 -59 38 77 c37 74 50 127 40 166 -9 34 -23 20 -24 -23 -1 -34 -3 -29 -9
24 -15 126 -56 212 -140 296 -51 51 -40 56 18 7 22 -20 59 -42 81 -50 l41 -14
-14 28 c-28 54 -146 133 -193 130 -10 -1 -42 -5 -71 -10z"/>
<path d="M1311 840 c-15 -78 -68 -193 -140 -305 -22 -33 -52 -93 -67 -133 -15
-40 -28 -71 -30 -69 -2 1 1 22 7 46 10 44 44 118 86 184 13 21 21 43 17 49 -4
7 -3 8 4 4 8 -5 10 -2 6 8 -3 9 -11 13 -17 9 -6 -4 -7 -1 -3 6 5 7 14 10 20 8
7 -3 19 -1 27 4 11 7 11 9 1 9 -8 0 -10 5 -6 13 5 7 0 6 -11 -3 -17 -14 -18
-13 -12 3 4 11 3 16 -3 12 -6 -3 -10 -12 -10 -20 0 -7 -6 -15 -13 -18 -36 -14
-143 -168 -198 -285 -32 -68 -68 -137 -80 -153 l-20 -29 196 0 197 0 -25 30
c-67 79 -63 170 16 336 68 144 79 186 75 289 l-3 80 -14 -75z"/>
<path d="M1284 496 c-65 -137 -59 -215 22 -286 34 -29 38 -30 135 -30 l100 0
-19 28 c-28 39 -75 136 -107 220 -23 61 -31 73 -46 69 -25 -7 -43 26 -35 64
10 50 -4 32 -50 -65z m86 -18 c0 -4 -9 -12 -20 -18 -17 -9 -20 -8 -20 9 0 14
6 19 20 18 11 -1 20 -5 20 -9z"/>
</g>
</svg>
